<svg xmlns="http://www.w3.org/2000/svg" xmlns:xlink="http://www.w3.org/1999/xlink" width="50" zoomAndPan="magnify" viewBox="0 0 37.5 37.499999" height="50" preserveAspectRatio="xMidYMid meet" version="1.0"><defs><clipPath id="b65cabab9a"><path d="M 1.777344 1.777344 L 14 1.777344 L 14 18 L 1.777344 18 Z M 1.777344 1.777344 " clip-rule="nonzero"/></clipPath><clipPath id="2c8673b83a"><path d="M 22 18 L 34.34375 18 L 34.34375 34.34375 L 22 34.34375 Z M 22 18 " clip-rule="nonzero"/></clipPath></defs><path fill="#00bf63" d="M 32.992188 15.019531 C 32.910156 14.941406 32.816406 14.902344 32.703125 14.902344 C 32.589844 14.902344 32.496094 14.941406 32.414062 15.019531 L 30.417969 17.019531 C 30.40625 17.03125 30.390625 17.042969 30.378906 17.054688 C 30.3125 15.167969 29.902344 13.4375 29.160156 11.902344 C 28.402344 10.332031 27.332031 9.015625 25.949219 7.953125 C 24.429688 6.785156 22.570312 5.976562 20.574219 5.621094 C 18.601562 5.265625 16.648438 5.34375 14.710938 5.851562 C 14.601562 5.882812 14.519531 5.945312 14.460938 6.042969 C 14.40625 6.140625 14.390625 6.242188 14.421875 6.351562 C 14.449219 6.457031 14.511719 6.542969 14.609375 6.597656 C 14.707031 6.65625 14.808594 6.667969 14.917969 6.640625 C 18.582031 5.667969 22.617188 6.417969 25.453125 8.597656 C 27.269531 9.996094 29.421875 12.601562 29.570312 17.132812 C 29.515625 17.101562 29.464844 17.0625 29.417969 17.019531 L 27.421875 15.019531 C 27.339844 14.941406 27.246094 14.90625 27.132812 14.90625 C 27.023438 14.90625 26.929688 14.945312 26.851562 15.023438 C 26.773438 15.105469 26.734375 15.199219 26.730469 15.308594 C 26.730469 15.421875 26.769531 15.515625 26.847656 15.59375 L 28.84375 17.59375 C 28.988281 17.734375 29.152344 17.84375 29.335938 17.921875 C 29.523438 18 29.71875 18.039062 29.917969 18.039062 C 30.121094 18.039062 30.3125 18 30.5 17.921875 C 30.683594 17.84375 30.847656 17.734375 30.992188 17.59375 L 32.992188 15.59375 C 33.070312 15.515625 33.109375 15.417969 33.109375 15.308594 C 33.109375 15.195312 33.070312 15.097656 32.992188 15.019531 Z M 32.992188 15.019531 " fill-opacity="1" fill-rule="nonzero"/><path fill="#00bf63" d="M 21.917969 29.988281 C 21.890625 29.878906 21.824219 29.796875 21.730469 29.742188 C 21.632812 29.683594 21.527344 29.671875 21.421875 29.699219 C 17.757812 30.671875 13.722656 29.921875 10.886719 27.738281 C 9.070312 26.34375 6.917969 23.738281 6.769531 19.207031 C 6.824219 19.238281 6.875 19.273438 6.917969 19.320312 L 8.917969 21.316406 C 8.996094 21.398438 9.09375 21.441406 9.207031 21.441406 C 9.320312 21.441406 9.417969 21.402344 9.496094 21.324219 C 9.578125 21.242188 9.617188 21.144531 9.617188 21.03125 C 9.617188 20.917969 9.574219 20.820312 9.492188 20.742188 L 7.492188 18.746094 C 7.351562 18.601562 7.1875 18.492188 7 18.417969 C 6.816406 18.339844 6.621094 18.300781 6.417969 18.300781 C 6.21875 18.300781 6.023438 18.339844 5.839844 18.417969 C 5.652344 18.492188 5.488281 18.601562 5.347656 18.746094 L 3.347656 20.742188 C 3.269531 20.824219 3.230469 20.917969 3.230469 21.03125 C 3.234375 21.140625 3.273438 21.234375 3.351562 21.3125 C 3.429688 21.394531 3.523438 21.433594 3.636719 21.433594 C 3.746094 21.433594 3.84375 21.394531 3.921875 21.316406 L 5.921875 19.320312 C 5.933594 19.308594 5.945312 19.296875 5.960938 19.285156 C 6.027344 21.171875 6.4375 22.902344 7.179688 24.433594 C 7.933594 26.007812 9.003906 27.324219 10.390625 28.382812 C 11.910156 29.554688 13.765625 30.359375 15.761719 30.71875 C 17.734375 31.070312 19.691406 30.992188 21.628906 30.484375 C 21.738281 30.457031 21.820312 30.394531 21.875 30.296875 C 21.933594 30.199219 21.945312 30.097656 21.917969 29.988281 Z M 21.917969 29.988281 " fill-opacity="1" fill-rule="nonzero"/><g clip-path="url(#b65cabab9a)"><path fill="#00bf63" d="M 11.925781 1.777344 L 5.570312 1.777344 C 5.457031 1.777344 5.363281 1.816406 5.28125 1.894531 L 1.894531 5.28125 C 1.816406 5.363281 1.777344 5.457031 1.777344 5.570312 L 1.777344 15.976562 C 1.777344 16.179688 1.816406 16.371094 1.890625 16.554688 C 1.96875 16.738281 2.078125 16.902344 2.21875 17.042969 C 2.359375 17.183594 2.523438 17.292969 2.707031 17.371094 C 2.890625 17.445312 3.082031 17.484375 3.285156 17.484375 L 8.945312 17.484375 C 9.058594 17.484375 9.152344 17.445312 9.234375 17.367188 C 9.3125 17.285156 9.351562 17.191406 9.351562 17.078125 C 9.351562 16.964844 9.3125 16.871094 9.234375 16.792969 C 9.152344 16.710938 9.058594 16.671875 8.945312 16.671875 L 3.285156 16.671875 C 3.089844 16.671875 2.929688 16.605469 2.792969 16.46875 C 2.65625 16.332031 2.589844 16.171875 2.589844 15.976562 L 2.589844 5.976562 L 4.757812 5.976562 C 4.917969 5.976562 5.074219 5.945312 5.222656 5.882812 C 5.371094 5.820312 5.503906 5.734375 5.617188 5.617188 C 5.734375 5.503906 5.820312 5.371094 5.882812 5.222656 C 5.945312 5.074219 5.976562 4.917969 5.976562 4.757812 L 5.976562 2.589844 L 11.925781 2.589844 C 12.117188 2.589844 12.28125 2.65625 12.414062 2.792969 C 12.550781 2.929688 12.617188 3.089844 12.617188 3.285156 L 12.617188 15.976562 C 12.617188 16.171875 12.550781 16.332031 12.414062 16.46875 C 12.28125 16.605469 12.117188 16.671875 11.925781 16.671875 L 10.976562 16.671875 C 10.863281 16.671875 10.769531 16.710938 10.691406 16.792969 C 10.609375 16.871094 10.570312 16.964844 10.570312 17.078125 C 10.570312 17.191406 10.609375 17.285156 10.691406 17.367188 C 10.769531 17.445312 10.863281 17.484375 10.976562 17.484375 L 11.925781 17.484375 C 12.125 17.484375 12.316406 17.445312 12.5 17.371094 C 12.6875 17.292969 12.847656 17.183594 12.988281 17.042969 C 13.132812 16.902344 13.238281 16.738281 13.316406 16.554688 C 13.394531 16.371094 13.429688 16.179688 13.429688 15.976562 L 13.429688 3.285156 C 13.429688 3.082031 13.394531 2.890625 13.316406 2.707031 C 13.238281 2.523438 13.132812 2.359375 12.988281 2.21875 C 12.847656 2.078125 12.6875 1.96875 12.5 1.890625 C 12.316406 1.816406 12.125 1.777344 11.925781 1.777344 Z M 4.757812 5.164062 L 3.164062 5.164062 L 5.164062 3.164062 L 5.164062 4.757812 C 5.164062 4.867188 5.125 4.964844 5.042969 5.042969 C 4.964844 5.125 4.867188 5.164062 4.757812 5.164062 Z M 4.757812 5.164062 " fill-opacity="1" fill-rule="nonzero"/></g><path fill="#00bf63" d="M 11.699219 10.039062 L 3.511719 10.039062 C 3.398438 10.039062 3.300781 9.996094 3.222656 9.917969 C 3.144531 9.839844 3.105469 9.742188 3.105469 9.628906 C 3.105469 9.519531 3.144531 9.421875 3.222656 9.34375 C 3.300781 9.265625 3.398438 9.222656 3.511719 9.222656 L 11.699219 9.222656 C 11.808594 9.222656 11.90625 9.265625 11.984375 9.34375 C 12.0625 9.421875 12.105469 9.519531 12.105469 9.628906 C 12.105469 9.742188 12.0625 9.839844 11.984375 9.917969 C 11.90625 9.996094 11.808594 10.039062 11.699219 10.039062 Z M 11.699219 10.039062 " fill-opacity="1" fill-rule="nonzero"/><path fill="#00bf63" d="M 11.699219 12.40625 L 3.511719 12.40625 C 3.398438 12.40625 3.300781 12.367188 3.222656 12.289062 C 3.144531 12.207031 3.105469 12.113281 3.105469 12 C 3.105469 11.886719 3.144531 11.792969 3.222656 11.714844 C 3.300781 11.632812 3.398438 11.59375 3.511719 11.59375 L 11.699219 11.59375 C 11.808594 11.59375 11.90625 11.632812 11.984375 11.714844 C 12.0625 11.792969 12.105469 11.886719 12.105469 12 C 12.105469 12.113281 12.0625 12.207031 11.984375 12.289062 C 11.90625 12.367188 11.808594 12.40625 11.699219 12.40625 Z M 11.699219 12.40625 " fill-opacity="1" fill-rule="nonzero"/><path fill="#00bf63" d="M 11.699219 7.667969 L 3.511719 7.667969 C 3.398438 7.667969 3.300781 7.628906 3.222656 7.546875 C 3.144531 7.46875 3.105469 7.375 3.105469 7.261719 C 3.105469 7.148438 3.144531 7.054688 3.222656 6.972656 C 3.300781 6.894531 3.398438 6.855469 3.511719 6.855469 L 11.699219 6.855469 C 11.808594 6.855469 11.90625 6.894531 11.984375 6.972656 C 12.0625 7.054688 12.105469 7.148438 12.105469 7.261719 C 12.105469 7.375 12.0625 7.46875 11.984375 7.546875 C 11.90625 7.628906 11.808594 7.667969 11.699219 7.667969 Z M 11.699219 7.667969 " fill-opacity="1" fill-rule="nonzero"/><g clip-path="url(#2c8673b83a)"><path fill="#00bf63" d="M 33.054688 18.851562 L 26.699219 18.851562 C 26.585938 18.851562 26.492188 18.890625 26.414062 18.972656 L 23.027344 22.359375 C 22.945312 22.4375 22.90625 22.535156 22.90625 22.644531 L 22.90625 33.054688 C 22.90625 33.253906 22.945312 33.445312 23.023438 33.632812 C 23.097656 33.816406 23.207031 33.980469 23.347656 34.121094 C 23.488281 34.261719 23.652344 34.371094 23.835938 34.445312 C 24.023438 34.523438 24.214844 34.5625 24.414062 34.5625 L 30.074219 34.5625 C 30.1875 34.5625 30.285156 34.523438 30.363281 34.441406 C 30.441406 34.363281 30.480469 34.269531 30.480469 34.15625 C 30.480469 34.042969 30.441406 33.949219 30.363281 33.867188 C 30.285156 33.789062 30.1875 33.75 30.074219 33.75 L 24.414062 33.75 C 24.222656 33.75 24.058594 33.679688 23.921875 33.546875 C 23.789062 33.410156 23.71875 33.246094 23.71875 33.054688 L 23.71875 23.050781 L 25.886719 23.050781 C 26.046875 23.050781 26.203125 23.019531 26.351562 22.960938 C 26.503906 22.898438 26.632812 22.808594 26.75 22.695312 C 26.863281 22.582031 26.953125 22.449219 27.011719 22.300781 C 27.074219 22.148438 27.105469 21.996094 27.105469 21.832031 L 27.105469 19.664062 L 33.054688 19.664062 C 33.246094 19.664062 33.410156 19.734375 33.546875 19.871094 C 33.679688 20.003906 33.75 20.167969 33.75 20.359375 L 33.75 33.054688 C 33.75 33.246094 33.679688 33.410156 33.546875 33.546875 C 33.410156 33.679688 33.246094 33.75 33.054688 33.75 L 32.109375 33.75 C 31.996094 33.75 31.898438 33.789062 31.820312 33.867188 C 31.742188 33.949219 31.699219 34.042969 31.699219 34.15625 C 31.699219 34.269531 31.742188 34.363281 31.820312 34.441406 C 31.898438 34.523438 31.996094 34.5625 32.109375 34.5625 L 33.054688 34.5625 C 33.253906 34.5625 33.445312 34.523438 33.632812 34.445312 C 33.816406 34.371094 33.980469 34.261719 34.121094 34.121094 C 34.261719 33.980469 34.371094 33.816406 34.445312 33.632812 C 34.523438 33.445312 34.5625 33.253906 34.5625 33.054688 L 34.5625 20.359375 C 34.5625 20.160156 34.523438 19.96875 34.445312 19.785156 C 34.371094 19.597656 34.261719 19.4375 34.121094 19.292969 C 33.980469 19.152344 33.816406 19.042969 33.632812 18.96875 C 33.445312 18.890625 33.253906 18.851562 33.054688 18.851562 Z M 25.886719 22.238281 L 24.292969 22.238281 L 26.292969 20.242188 L 26.292969 21.832031 C 26.292969 21.945312 26.253906 22.042969 26.175781 22.121094 C 26.09375 22.199219 26 22.238281 25.886719 22.238281 Z M 25.886719 22.238281 " fill-opacity="1" fill-rule="nonzero"/></g><path fill="#00bf63" d="M 32.828125 27.113281 L 24.640625 27.113281 C 24.527344 27.113281 24.433594 27.074219 24.351562 26.996094 C 24.273438 26.914062 24.234375 26.820312 24.234375 26.707031 C 24.234375 26.59375 24.273438 26.5 24.351562 26.417969 C 24.433594 26.339844 24.527344 26.300781 24.640625 26.300781 L 32.828125 26.300781 C 32.941406 26.300781 33.035156 26.339844 33.113281 26.417969 C 33.195312 26.5 33.234375 26.59375 33.234375 26.707031 C 33.234375 26.820312 33.195312 26.914062 33.113281 26.996094 C 33.035156 27.074219 32.941406 27.113281 32.828125 27.113281 Z M 32.828125 27.113281 " fill-opacity="1" fill-rule="nonzero"/><path fill="#00bf63" d="M 32.828125 29.484375 L 24.640625 29.484375 C 24.527344 29.484375 24.433594 29.445312 24.351562 29.363281 C 24.273438 29.285156 24.234375 29.1875 24.234375 29.078125 C 24.234375 28.964844 24.273438 28.867188 24.351562 28.789062 C 24.433594 28.710938 24.527344 28.671875 24.640625 28.671875 L 32.828125 28.671875 C 32.941406 28.671875 33.035156 28.710938 33.113281 28.789062 C 33.195312 28.867188 33.234375 28.964844 33.234375 29.078125 C 33.234375 29.1875 33.195312 29.285156 33.113281 29.363281 C 33.035156 29.445312 32.941406 29.484375 32.828125 29.484375 Z M 32.828125 29.484375 " fill-opacity="1" fill-rule="nonzero"/><path fill="#00bf63" d="M 32.828125 24.742188 L 24.640625 24.742188 C 24.527344 24.742188 24.433594 24.703125 24.351562 24.625 C 24.273438 24.546875 24.234375 24.449219 24.234375 24.335938 C 24.234375 24.226562 24.273438 24.128906 24.351562 24.050781 C 24.433594 23.972656 24.527344 23.929688 24.640625 23.929688 L 32.828125 23.929688 C 32.941406 23.929688 33.035156 23.972656 33.113281 24.050781 C 33.195312 24.128906 33.234375 24.226562 33.234375 24.335938 C 33.234375 24.449219 33.195312 24.546875 33.113281 24.625 C 33.035156 24.703125 32.941406 24.742188 32.828125 24.742188 Z M 32.828125 24.742188 " fill-opacity="1" fill-rule="nonzero"/></svg>