<svg xmlns="http://www.w3.org/2000/svg" xmlns:xlink="http://www.w3.org/1999/xlink" width="80" zoomAndPan="magnify" viewBox="0 0 60 60" height="80" preserveAspectRatio="xMidYMid meet" version="1.0"><defs><clipPath id="7b632b1b1c"><path d="M 12.449219 35 L 15 35 L 15 39 L 12.449219 39 Z M 12.449219 35 " clip-rule="nonzero"/></clipPath><clipPath id="54d69d66d9"><path d="M 12.449219 20 L 36.449219 20 L 36.449219 43.972656 L 12.449219 43.972656 Z M 12.449219 20 " clip-rule="nonzero"/></clipPath><clipPath id="6ad9ea99b7"><path d="M 11 11 L 56.863281 11 L 56.863281 57 L 11 57 Z M 11 11 " clip-rule="nonzero"/></clipPath><clipPath id="3ec9acc3f4"><path d="M 3 3 L 56.863281 3 L 56.863281 48 L 3 48 Z M 3 3 " clip-rule="nonzero"/></clipPath></defs><rect x="-6" width="72" fill="#ffffff" y="-6" height="72" fill-opacity="1"/><rect x="-6" width="72" fill="#ffffff" y="-6" height="72" fill-opacity="1"/><g clip-path="url(#7b632b1b1c)"><path fill="#000000" d="M 14.125 35.625 L 14.125 37.890625 L 13.894531 38.121094 C 13.738281 38.277344 13.546875 38.355469 13.328125 38.355469 C 13.105469 38.355469 12.917969 38.277344 12.761719 38.121094 C 12.605469 37.964844 12.527344 37.777344 12.527344 37.554688 C 12.527344 37.332031 12.605469 37.144531 12.761719 36.988281 Z M 14.125 35.625 " fill-opacity="1" fill-rule="nonzero"/></g><g clip-path="url(#54d69d66d9)"><path fill="#000000" d="M 34.058594 20.011719 L 14.921875 20.011719 C 14.605469 20.015625 14.300781 20.074219 14.007812 20.199219 C 13.714844 20.320312 13.457031 20.492188 13.234375 20.714844 C 13.007812 20.941406 12.835938 21.199219 12.714844 21.492188 C 12.59375 21.785156 12.53125 22.089844 12.53125 22.40625 L 12.53125 41.542969 C 12.53125 41.859375 12.59375 42.164062 12.714844 42.457031 C 12.835938 42.75 13.007812 43.007812 13.234375 43.230469 C 13.457031 43.453125 13.714844 43.628906 14.007812 43.75 C 14.300781 43.871094 14.605469 43.933594 14.921875 43.933594 L 34.058594 43.933594 C 34.375 43.933594 34.679688 43.871094 34.972656 43.75 C 35.265625 43.628906 35.523438 43.453125 35.746094 43.230469 C 35.972656 43.007812 36.144531 42.75 36.265625 42.457031 C 36.386719 42.164062 36.449219 41.859375 36.449219 41.542969 L 36.449219 22.40625 C 36.449219 22.089844 36.386719 21.785156 36.265625 21.492188 C 36.144531 21.199219 35.972656 20.941406 35.746094 20.714844 C 35.523438 20.492188 35.265625 20.320312 34.972656 20.199219 C 34.679688 20.074219 34.375 20.015625 34.058594 20.011719 Z M 34.855469 31.972656 L 29.753906 28.144531 C 29.59375 28.027344 29.414062 27.972656 29.214844 27.988281 C 29.019531 28 28.847656 28.078125 28.707031 28.21875 L 23.828125 33.097656 L 34.316406 42.285156 C 34.234375 42.320312 34.148438 42.335938 34.058594 42.339844 L 31.960938 42.339844 L 19.433594 31.375 C 19.277344 31.234375 19.09375 31.167969 18.882812 31.175781 C 18.671875 31.179688 18.492188 31.257812 18.34375 31.40625 L 14.125 35.625 L 14.125 22.40625 C 14.125 22.183594 14.203125 21.996094 14.359375 21.839844 C 14.511719 21.6875 14.703125 21.609375 14.921875 21.609375 L 34.058594 21.609375 C 34.277344 21.609375 34.464844 21.6875 34.621094 21.839844 C 34.777344 21.996094 34.855469 22.183594 34.855469 22.40625 Z M 34.855469 31.972656 " fill-opacity="1" fill-rule="nonzero"/></g><path fill="#000000" d="M 23.691406 26.390625 C 23.691406 26.816406 23.613281 27.222656 23.449219 27.613281 C 23.289062 28.003906 23.058594 28.347656 22.757812 28.648438 C 22.460938 28.945312 22.113281 29.175781 21.722656 29.339844 C 21.332031 29.5 20.925781 29.582031 20.503906 29.582031 C 20.082031 29.582031 19.671875 29.5 19.28125 29.339844 C 18.890625 29.175781 18.546875 28.945312 18.246094 28.648438 C 17.949219 28.347656 17.71875 28.003906 17.554688 27.613281 C 17.394531 27.222656 17.3125 26.816406 17.3125 26.390625 C 17.3125 25.96875 17.394531 25.5625 17.554688 25.171875 C 17.71875 24.78125 17.949219 24.4375 18.246094 24.136719 C 18.546875 23.835938 18.890625 23.605469 19.28125 23.445312 C 19.671875 23.285156 20.082031 23.203125 20.503906 23.203125 C 20.925781 23.203125 21.332031 23.285156 21.722656 23.445312 C 22.113281 23.605469 22.460938 23.835938 22.757812 24.136719 C 23.058594 24.4375 23.289062 24.78125 23.449219 25.171875 C 23.613281 25.5625 23.691406 25.96875 23.691406 26.390625 Z M 23.691406 26.390625 " fill-opacity="1" fill-rule="nonzero"/><g clip-path="url(#6ad9ea99b7)"><path fill="#f48fb1" d="M 51.351562 56.992188 L 17.140625 56.992188 C 14.171875 56.992188 11.628906 54.578125 11.628906 51.453125 L 11.628906 17.070312 C 11.628906 14.089844 14.03125 11.53125 17.140625 11.53125 L 51.351562 11.53125 C 54.320312 11.53125 56.863281 13.945312 56.863281 17.070312 L 56.863281 51.453125 C 56.863281 54.578125 54.460938 56.992188 51.351562 56.992188 Z M 51.351562 56.992188 " fill-opacity="1" fill-rule="nonzero"/></g><path stroke-linecap="round" transform="matrix(1.413612, 0, 0, 1.420668, -5.334631, -5.516705)" fill="none" stroke-linejoin="round" d="M 40.500919 19.000402 L 40.500919 36.49877 C 40.500919 38.701189 38.69924 40.499418 36.499645 40.499418 L 11.499974 40.499418 C 9.300379 40.499418 7.498701 38.701189 7.498701 36.49877 L 7.498701 28.898913 " stroke="#18193f" stroke-width="3" stroke-opacity="1" stroke-miterlimit="4"/><path stroke-linecap="round" transform="matrix(1.413612, 0, 0, 1.420668, -5.334631, -5.516705)" fill="none" stroke-linejoin="round" d="M 7.498701 21.499776 L 7.498701 11.499531 C 7.498701 9.299862 9.300379 7.498883 11.499974 7.498883 L 36.499645 7.498883 C 38.69924 7.498883 40.500919 9.299862 40.500919 11.499531 L 40.500919 13.399495 " stroke="#18193f" stroke-width="3" stroke-opacity="1" stroke-miterlimit="4"/><g clip-path="url(#3ec9acc3f4)"><path stroke-linecap="butt" transform="matrix(1.413612, 0, 0, 1.420668, -5.334631, -5.516705)" fill="none" stroke-linejoin="miter" d="M 29.500179 17.499128 C 29.500179 17.697098 29.480836 17.892319 29.44215 18.08479 C 29.403464 18.277261 29.348197 18.466983 29.270825 18.648455 C 29.196215 18.829928 29.105026 19.003152 28.994494 19.165378 C 28.883961 19.330353 28.759612 19.48158 28.621447 19.621809 C 28.483281 19.759288 28.331299 19.885769 28.1655 19.995753 C 28.002465 20.102986 27.83114 20.196472 27.648761 20.270711 C 27.466383 20.3477 27.278478 20.402691 27.085046 20.441186 C 26.891614 20.47968 26.698183 20.498927 26.499224 20.498927 C 26.303029 20.498927 26.106834 20.47968 25.913402 20.441186 C 25.722734 20.402691 25.534829 20.3477 25.35245 20.270711 C 25.170072 20.196472 24.995983 20.102986 24.832948 19.995753 C 24.669913 19.885769 24.517931 19.759288 24.379765 19.621809 C 24.238836 19.48158 24.114487 19.330353 24.006718 19.165378 C 23.896186 19.003152 23.804996 18.829928 23.727624 18.648455 C 23.653014 18.466983 23.594985 18.277261 23.556298 18.08479 C 23.520375 17.892319 23.501032 17.697098 23.501032 17.499128 C 23.501032 17.303908 23.520375 17.108687 23.556298 16.913466 C 23.594985 16.720995 23.653014 16.534023 23.727624 16.352551 C 23.804996 16.171078 23.896186 15.997854 24.006718 15.832879 C 24.114487 15.670653 24.238836 15.516676 24.379765 15.379197 C 24.517931 15.238968 24.669913 15.115237 24.832948 15.005253 C 24.995983 14.89527 25.170072 14.804534 25.35245 14.727545 C 25.534829 14.653306 25.722734 14.595565 25.913402 14.557071 C 26.106834 14.518577 26.303029 14.499329 26.499224 14.499329 C 26.698183 14.499329 26.891614 14.518577 27.085046 14.557071 C 27.278478 14.595565 27.466383 14.653306 27.648761 14.727545 C 27.83114 14.804534 28.002465 14.89527 28.1655 15.005253 C 28.331299 15.115237 28.483281 15.238968 28.621447 15.379197 C 28.759612 15.516676 28.883961 15.670653 28.994494 15.832879 C 29.105026 15.997854 29.196215 16.171078 29.270825 16.352551 C 29.348197 16.534023 29.403464 16.720995 29.44215 16.913466 C 29.480836 17.108687 29.500179 17.303908 29.500179 17.499128 Z M 29.500179 17.499128 " stroke="#18193f" stroke-width="3" stroke-opacity="1" stroke-miterlimit="4"/></g><path stroke-linecap="round" transform="matrix(1.413612, 0, 0, 1.420668, -5.334631, -5.516705)" fill="none" stroke-linejoin="round" d="M 7.498701 29.000648 L 12.900973 23.699445 C 14.299208 22.299906 16.601046 22.299906 18.09876 23.699445 L 31.100136 36.10008 " stroke="#18193f" stroke-width="3" stroke-opacity="1" stroke-miterlimit="4"/><path stroke-linecap="round" transform="matrix(1.413612, 0, 0, 1.420668, -5.334631, -5.516705)" fill="none" stroke-linejoin="round" d="M 25.999065 30.301202 L 29.90086 26.399539 C 31.100136 25.20072 33.001294 25.20072 34.101092 26.399539 L 40.100239 32.399137 " stroke="#18193f" stroke-width="3" stroke-opacity="1" stroke-miterlimit="4"/></svg>